<svg xmlns="http://www.w3.org/2000/svg" version="1.1" xmlns:xlink="http://www.w3.org/1999/xlink" width="2000" height="720" viewBox="0 0 2000 720"><svg xml:space="preserve" width="2000" height="720" data-version="2" data-id="lg_EUpLXlSBG7LzSz10IG" viewBox="0 0 813 720" x="0" y="0"><rect width="100%" height="100%" fill="transparent"></rect><path fill="#fff" d="M405.99 712.65c-62.688 0-125.376-.18-188.063.18-9.02.045-14.116-2.796-18.626-10.779C136.839 591.333 74.15 480.706 11.193 370.258c-4.33-7.622-3.924-13.259.27-20.565C74.783 239.02 137.921 128.212 200.79 17.268c4.33-7.621 9.29-10.147 17.86-10.147q188.603.338 377.207 0c8.434 0 13.35 2.345 17.724 10.102C675.546 126.95 737.828 236.54 800.425 345.86c5.953 10.372 5.908 18.174 0 28.547a58980.472 58980.472 0 0 0-184.86 324.623c-5.728 10.147-12.042 13.98-23.813 13.845-61.92-.586-123.842-.27-185.808-.27ZM276.24 154.64v439.444c124.563-70.715 247.187-140.348 371.886-211.153A2779101.192 2779101.192 0 0 1 276.24 154.64m12.943-15.56c121.993 74.865 241.55 148.241 363.814 223.286-1.308-9.877-1.895-16.461-3.067-22.91-17.138-95.61-34.366-191.175-51.458-286.785-2.39-13.394-2.48-13.71-15.875-9.336-77.074 25.03-154.103 50.06-231.177 75.135-19.844 6.45-39.597 13.08-62.282 20.566Zm-35.448 446.48V160.053C181.757 229.234 111.81 296.476 40.778 364.756c70.715 73.331 140.618 145.85 212.957 220.85Zm39.552 22.37c4.284 1.623 6.269 2.616 8.298 3.112 90.604 22.55 181.253 45.144 271.902 67.603 14.612 3.608 14.567 3.337 17.95-11.094 19.392-83.253 38.875-166.506 58.222-249.759.857-3.698 1.128-7.531 2.075-14.07-120.46 68.595-238.258 135.748-358.492 204.208ZM226.27 27.867c1.984 5.14 3.157 8.659 4.69 11.95 11.365 24.49 23.316 48.708 33.915 73.512 4.013 9.38 8.614 9.832 17.137 7.036 84.065-27.556 168.265-54.796 252.374-82.17 8.434-2.752 16.777-5.864 25.12-8.795-.18-.496-.406-1.037-.586-1.533zM627.245 82.12c-.857.36-1.759.721-2.616 1.127 2.03 11.365 4.104 22.775 6.089 34.14 14.476 81.539 29.043 163.033 43.295 244.617 1.353 7.802 3.833 9.967 11.816 7.983 18.175-4.465 36.665-7.848 54.93-11.907 11.951-2.66 23.813-5.727 37.523-9.02A719081.218 719081.218 0 0 0 627.2 82.122ZM48.04 325.836l1.623 1.488c1.173-.767 2.526-1.398 3.563-2.39 64.582-61.74 129.073-123.527 193.745-185.132 5.187-4.916 4.78-8.974 2.075-14.747-11.545-24.399-22.685-49.023-34.095-73.511-1.263-2.752-3.247-5.142-5.908-9.29-54.39 95.834-107.696 189.686-161.003 283.582m731.866 42.979c-35.087 7.486-66.611 13.98-97.865 21.332-3.337.766-7.035 6.359-7.982 10.327-19.708 82.712-39.101 165.559-58.448 248.36-.587 2.526-.632 5.187-.948 7.803.632.135 1.263.315 1.895.45C670.45 562.02 724.298 466.997 779.95 368.816Zm-240.468 323.81.27-1.352c-2.3-.902-4.509-2.03-6.9-2.616-83.613-21.061-167.271-41.987-250.84-63.184-8.343-2.12-14.07-1.172-18.4 7.261-5.142 9.967-11.636 19.258-17.408 28.864-5.863 9.786-11.59 19.663-18.266 30.983h311.544Zm-328.546-11.184c12.177-20.385 22.324-38.695 33.87-56.058 6.133-9.245 5.456-14.882-2.3-22.865-56.555-57.907-112.613-116.31-168.851-174.488-2.39-2.48-5.051-4.69-7.577-6.99-.631.54-1.263 1.037-1.894 1.578a637836.692 637836.692 0 0 1 146.752 258.868Z"></path></svg></svg>